# xmcd
#
# Track frame offsets:
# 150
# 36865
# 55300
# 67275
# 103467
# 125827
# 152040
# 167165
# 178167
# 193512
# 217397
# 234262
# 247697
# 274422
#
# Disc length: 3883 seconds
#
#
# Revision: 0
# Processed by: cddbd v1.5PL3 Copyright (c) Steve Scherf et al.
# Submitted via: FreeRIP 2.70 
#
DISCID=dd0f290e
DTITLE=David and Roselyn - New Orleans Style
DYEAR=1900
DGENRE=Blues
TTITLE0=Good Morning Blues
TTITLE1=Make Me A Pallet On Your Floor
TTITLE2=Walking To New Orleans
TTITLE3=Just A Closer Walk With Thee/When The Saints Go Marching In
TTITLE4=Jumbalaya
TTITLE5=Ode To Billy Joe
TTITLE6=Stavin' Chain
TTITLE7=Barnyard Dance
TTITLE8=Rooster Blues
TTITLE9=Sugar In My Bowl
TTITLE10=Do Your Duty
TTITLE11=You Know They Would
TTITLE12=Georgia
TTITLE13=Lady Marmalade
EXTD=
EXTT0=
EXTT1=
EXTT2=
EXTT3=
EXTT4=
EXTT5=
EXTT6=
EXTT7=
EXTT8=
EXTT9=
EXTT10=
EXTT11=
EXTT12=
EXTT13=
PLAYORDER=
